<?xml version="1.0" encoding="utf-8"?>
<!-- Generator: Adobe Illustrator 26.3.1, SVG Export Plug-In . SVG Version: 6.00 Build 0)  -->
<svg version="1.1" id="Layer_1" xmlns="http://www.w3.org/2000/svg" xmlns:xlink="http://www.w3.org/1999/xlink" x="0px" y="0px"
	 viewBox="0 0 40 40" style="enable-background:new 0 0 40 40;" xml:space="preserve">
<style type="text/css">
	.st0{fill:#FF6000;}
	.st1{fill:#FFFFFF;}
</style>
<g id="sHxK8prVNuCQ-8uXaF1iv" transform="matrix(0.97 0 0 0.97 20.03 20.03)">
	<path vector-effect="non-scaling-stroke" class="st0" d="M-20.7-11.9c0-4.8,3.9-8.8,8.8-8.8h23.8l0,0c4.8,0,8.8,3.9,8.8,8.8v23.8
		l0,0c0,4.8-3.9,8.8-8.8,8.8h-23.8l0,0c-4.8,0-8.8-3.9-8.8-8.8V-11.9z"/>
</g>
<g id="EyxZNbMFNf-qy041XuCps" transform="matrix(0.31 0 0 0.31 20.03 13.26)">
	<path vector-effect="non-scaling-stroke" class="st1" d="M-21-20c-2.2,0-4,1.8-4,4v32c0,2.2,1.8,4,4,4h42c2.2,0,4-1.8,4-4v-32
		c0-2.2-1.8-4-4-4H-21z M-20-16h40c0.6,0,1,0.4,1,1V9l-8.2-7.5c-2-1.8-5.1-1.8-7.1,0L-3,9.6l-4.8-4.1c-2-1.7-4.9-1.7-6.8,0L-21,11
		v-26C-21-15.6-20.6-16-20-16z M-9-12c-2.2,0-4,1.8-4,4s1.8,4,4,4s4-1.8,4-4S-6.8-12-9-12z"/>
</g>
<g>
	<path class="st1" d="M8.9,24.8h1.5l0.7,2.3l0.7-2.3h1.5l-1.2,3.3l0.7,1.9l1.8-5.2h1.8l-2.8,7.1h-1.4l-1.1-2.8L10,31.8H8.6l-2.8-7.1
		h1.8L9.4,30l0.7-1.9L8.9,24.8z"/>
	<path class="st1" d="M18.8,31.9c-0.4,0-0.8-0.1-1.2-0.2c-0.4-0.1-0.6-0.3-0.9-0.6c-0.2-0.2-0.4-0.5-0.6-0.9c-0.1-0.3-0.2-0.7-0.2-1
		c0-0.4,0.1-0.7,0.2-1.1c0.1-0.3,0.3-0.6,0.5-0.9c0.2-0.3,0.5-0.5,0.9-0.6c0.3-0.1,0.7-0.2,1.2-0.2c0.4,0,0.8,0.1,1.2,0.2
		s0.6,0.3,0.9,0.6s0.4,0.5,0.5,0.9c0.1,0.3,0.2,0.7,0.2,1c0,0.1,0,0.2,0,0.3c0,0.1,0,0.2,0,0.2h-3.9c0,0.4,0.2,0.6,0.4,0.8
		c0.2,0.2,0.5,0.3,0.8,0.3c0.2,0,0.5-0.1,0.7-0.2c0.2-0.1,0.4-0.3,0.4-0.5l1.4,0.4c-0.2,0.4-0.5,0.8-1,1
		C20,31.8,19.5,31.9,18.8,31.9z M20,28.7c0-0.3-0.2-0.6-0.4-0.8s-0.5-0.3-0.8-0.3c-0.3,0-0.6,0.1-0.8,0.3c-0.2,0.2-0.3,0.5-0.4,0.8
		H20z"/>
	<path class="st1" d="M25.5,31.9c-0.4,0-0.8-0.1-1-0.3c-0.3-0.2-0.5-0.4-0.7-0.7v0.9h-1.4v-7.3H24v2.9c0.2-0.3,0.4-0.5,0.7-0.7
		s0.6-0.3,1-0.3c0.3,0,0.6,0.1,0.9,0.2s0.5,0.3,0.7,0.6c0.2,0.2,0.4,0.5,0.5,0.9c0.1,0.3,0.2,0.7,0.2,1.1c0,0.4-0.1,0.7-0.2,1.1
		s-0.3,0.6-0.5,0.9s-0.5,0.4-0.8,0.6C26.2,31.9,25.9,31.9,25.5,31.9z M25.1,30.6c0.2,0,0.4,0,0.5-0.1c0.2-0.1,0.3-0.2,0.4-0.3
		c0.1-0.1,0.2-0.3,0.3-0.4c0.1-0.2,0.1-0.3,0.1-0.5c0-0.2,0-0.4-0.1-0.5c-0.1-0.2-0.1-0.3-0.2-0.4S25.8,28,25.6,28s-0.3-0.1-0.5-0.1
		c-0.3,0-0.5,0.1-0.7,0.3c-0.2,0.2-0.4,0.4-0.5,0.7v1.1c0.1,0.2,0.3,0.4,0.5,0.5C24.6,30.5,24.9,30.6,25.1,30.6z"/>
	<path class="st1" d="M28.8,31.8v-7.1h3c0.3,0,0.7,0.1,0.9,0.2c0.3,0.1,0.5,0.3,0.7,0.5s0.4,0.5,0.5,0.8c0.1,0.3,0.2,0.6,0.2,0.9
		c0,0.3-0.1,0.6-0.2,0.9c-0.1,0.3-0.3,0.5-0.5,0.8c-0.2,0.2-0.4,0.4-0.7,0.5c-0.3,0.1-0.6,0.2-0.9,0.2h-1.4v2.3H28.8z M30.5,28.1
		h1.3c0.2,0,0.4-0.1,0.5-0.2c0.1-0.2,0.2-0.4,0.2-0.7c0-0.2,0-0.3-0.1-0.4c0-0.1-0.1-0.2-0.2-0.3s-0.2-0.1-0.2-0.2
		c-0.1,0-0.2-0.1-0.3-0.1h-1.3V28.1z"/>
</g>
</svg>
